<svg id="visual" viewBox="0 0 960 540" width="960" height="540" xmlns="http://www.w3.org/2000/svg" xmlns:xlink="http://www.w3.org/1999/xlink" version="1.1"><path d="M0 104L17.8 105.7C35.7 107.3 71.3 110.7 106.8 104.3C142.3 98 177.7 82 213.2 73C248.7 64 284.3 62 320 65.5C355.7 69 391.3 78 426.8 84.3C462.3 90.7 497.7 94.3 533.2 98C568.7 101.7 604.3 105.3 640 99C675.7 92.7 711.3 76.3 746.8 71C782.3 65.7 817.7 71.3 853.2 73.2C888.7 75 924.3 73 942.2 72L960 71L960 0L942.2 0C924.3 0 888.7 0 853.2 0C817.7 0 782.3 0 746.8 0C711.3 0 675.7 0 640 0C604.3 0 568.7 0 533.2 0C497.7 0 462.3 0 426.8 0C391.3 0 355.7 0 320 0C284.3 0 248.7 0 213.2 0C177.7 0 142.3 0 106.8 0C71.3 0 35.7 0 17.8 0L0 0Z" fill="#ffffff"></path><path d="M0 271L17.8 262.8C35.7 254.7 71.3 238.3 106.8 224C142.3 209.7 177.7 197.3 213.2 186.7C248.7 176 284.3 167 320 168.7C355.7 170.3 391.3 182.7 426.8 197C462.3 211.3 497.7 227.7 533.2 227.7C568.7 227.7 604.3 211.3 640 205C675.7 198.7 711.3 202.3 746.8 208.7C782.3 215 817.7 224 853.2 229.5C888.7 235 924.3 237 942.2 238L960 239L960 69L942.2 70C924.3 71 888.7 73 853.2 71.2C817.7 69.3 782.3 63.7 746.8 69C711.3 74.3 675.7 90.7 640 97C604.3 103.3 568.7 99.7 533.2 96C497.7 92.3 462.3 88.7 426.8 82.3C391.3 76 355.7 67 320 63.5C284.3 60 248.7 62 213.2 71C177.7 80 142.3 96 106.8 102.3C71.3 108.7 35.7 105.3 17.8 103.7L0 102Z" fill="#f7f7f7"></path><path d="M0 352L17.8 358.3C35.7 364.7 71.3 377.3 106.8 378.2C142.3 379 177.7 368 213.2 365.3C248.7 362.7 284.3 368.3 320 370.2C355.7 372 391.3 370 426.8 367.2C462.3 364.3 497.7 360.7 533.2 365.2C568.7 369.7 604.3 382.3 640 385.2C675.7 388 711.3 381 746.8 372C782.3 363 817.7 352 853.2 347.5C888.7 343 924.3 345 942.2 346L960 347L960 237L942.2 236C924.3 235 888.7 233 853.2 227.5C817.7 222 782.3 213 746.8 206.7C711.3 200.3 675.7 196.7 640 203C604.3 209.3 568.7 225.7 533.2 225.7C497.7 225.7 462.3 209.3 426.8 195C391.3 180.7 355.7 168.3 320 166.7C284.3 165 248.7 174 213.2 184.7C177.7 195.3 142.3 207.7 106.8 222C71.3 236.3 35.7 252.7 17.8 260.8L0 269Z" fill="#f0f0f0"></path><path d="M0 395L17.8 399.5C35.7 404 71.3 413 106.8 414C142.3 415 177.7 408 213.2 408C248.7 408 284.3 415 320 415C355.7 415 391.3 408 426.8 410.7C462.3 413.3 497.7 425.7 533.2 433.7C568.7 441.7 604.3 445.3 640 446.3C675.7 447.3 711.3 445.7 746.8 438.5C782.3 431.3 817.7 418.7 853.2 411.5C888.7 404.3 924.3 402.7 942.2 401.8L960 401L960 345L942.2 344C924.3 343 888.7 341 853.2 345.5C817.7 350 782.3 361 746.8 370C711.3 379 675.7 386 640 383.2C604.3 380.3 568.7 367.7 533.2 363.2C497.7 358.7 462.3 362.3 426.8 365.2C391.3 368 355.7 370 320 368.2C284.3 366.3 248.7 360.7 213.2 363.3C177.7 366 142.3 377 106.8 376.2C71.3 375.3 35.7 362.7 17.8 356.3L0 350Z" fill="#e8e8e8"></path><path d="M0 471L17.8 474.5C35.7 478 71.3 485 106.8 488.5C142.3 492 177.7 492 213.2 493.8C248.7 495.7 284.3 499.3 320 497.7C355.7 496 391.3 489 426.8 489C462.3 489 497.7 496 533.2 500.5C568.7 505 604.3 507 640 506.2C675.7 505.3 711.3 501.7 746.8 497.2C782.3 492.7 817.7 487.3 853.2 486.3C888.7 485.3 924.3 488.7 942.2 490.3L960 492L960 399L942.2 399.8C924.3 400.7 888.7 402.3 853.2 409.5C817.7 416.7 782.3 429.3 746.8 436.5C711.3 443.7 675.7 445.3 640 444.3C604.3 443.3 568.7 439.7 533.2 431.7C497.7 423.7 462.3 411.3 426.8 408.7C391.3 406 355.7 413 320 413C284.3 413 248.7 406 213.2 406C177.7 406 142.3 413 106.8 412C71.3 411 35.7 402 17.8 397.5L0 393Z" fill="#e1e1e1"></path><path d="M0 541L17.8 541C35.7 541 71.3 541 106.8 541C142.3 541 177.7 541 213.2 541C248.7 541 284.3 541 320 541C355.7 541 391.3 541 426.8 541C462.3 541 497.7 541 533.2 541C568.7 541 604.3 541 640 541C675.7 541 711.3 541 746.8 541C782.3 541 817.7 541 853.2 541C888.7 541 924.3 541 942.2 541L960 541L960 490L942.2 488.3C924.3 486.7 888.7 483.3 853.2 484.3C817.7 485.3 782.3 490.7 746.8 495.2C711.3 499.7 675.7 503.3 640 504.2C604.3 505 568.7 503 533.2 498.5C497.7 494 462.3 487 426.8 487C391.3 487 355.7 494 320 495.7C284.3 497.3 248.7 493.7 213.2 491.8C177.7 490 142.3 490 106.8 486.5C71.3 483 35.7 476 17.8 472.5L0 469Z" fill="#dadada"></path></svg>